<svg xmlns="http://www.w3.org/2000/svg" version="1.1" xmlns:xlink="http://www.w3.org/1999/xlink" xmlns:svgjs="http://svgjs.com/svgjs" width="80" height="80" x="0" y="0" viewBox="0 0 473.931 473.931" style="enable-background:new 0 0 80 80" xml:space="preserve" class=""><g>
<circle xmlns="http://www.w3.org/2000/svg" style="" cx="236.966" cy="236.966" r="236.966" fill="#e00000" data-original="#f28400" class=""></circle>
<path xmlns="http://www.w3.org/2000/svg" style="" d="M324.149,147.755c0-6.514-5.283-11.801-11.802-11.801h-45.646c-6.526,0-11.809,5.287-11.809,11.801  v116.713l69.256-69.26V147.755z" fill="#eca448" data-original="#eca448" class=""></path>
<g xmlns="http://www.w3.org/2000/svg">
	<path style="" d="M324.149,326.151c0,6.518-5.283,11.802-11.802,11.802h-45.646c-6.526,0-11.809-5.283-11.809-11.802   V147.755c0-6.514,5.283-11.801,11.809-11.801h45.646c6.518,0,11.802,5.287,11.802,11.801L324.149,326.151L324.149,326.151z" fill="#ffffff" data-original="#ffffff" class=""></path>
	<path style="" d="M219.016,326.151c0,6.518-5.283,11.802-11.802,11.802h-45.657c-6.518,0-11.802-5.283-11.802-11.802   V147.755c0-6.514,5.283-11.801,11.802-11.801h45.653c6.518,0,11.801,5.287,11.801,11.801v178.396H219.016z" fill="#ffffff" data-original="#ffffff" class=""></path>
</g>
<g xmlns="http://www.w3.org/2000/svg">
</g>
<g xmlns="http://www.w3.org/2000/svg">
</g>
<g xmlns="http://www.w3.org/2000/svg">
</g>
<g xmlns="http://www.w3.org/2000/svg">
</g>
<g xmlns="http://www.w3.org/2000/svg">
</g>
<g xmlns="http://www.w3.org/2000/svg">
</g>
<g xmlns="http://www.w3.org/2000/svg">
</g>
<g xmlns="http://www.w3.org/2000/svg">
</g>
<g xmlns="http://www.w3.org/2000/svg">
</g>
<g xmlns="http://www.w3.org/2000/svg">
</g>
<g xmlns="http://www.w3.org/2000/svg">
</g>
<g xmlns="http://www.w3.org/2000/svg">
</g>
<g xmlns="http://www.w3.org/2000/svg">
</g>
<g xmlns="http://www.w3.org/2000/svg">
</g>
<g xmlns="http://www.w3.org/2000/svg">
</g>
</g></svg>