<svg xmlns="http://www.w3.org/2000/svg" version="1.1" xmlns:xlink="http://www.w3.org/1999/xlink" xmlns:svgjs="http://svgjs.com/svgjs" width="80" height="80" x="0" y="0" viewBox="0 0 511.449 511.449" style="enable-background:new 0 0 80 80" xml:space="preserve" class=""><g><circle xmlns="http://www.w3.org/2000/svg" cx="255.724" cy="255.724" fill="#e00000" r="234.667" data-original="#ffebd2" style="" class=""></circle><path xmlns="http://www.w3.org/2000/svg" d="m233.324 22.114c-10.63 111.06-99.58 199.27-210.97 208.75 11.65-110.56 100.07-198.25 210.97-208.75z" fill="#e00000" data-original="#fff3e4" style="" class=""></path><path xmlns="http://www.w3.org/2000/svg" d="m223.391 181.058 96 74.666-96 74.667z" fill="#ffffff" data-original="#99d856" style="" class=""></path><path xmlns="http://www.w3.org/2000/svg" d="m436.508 74.941c-99.913-99.913-261.639-99.928-361.566 0-99.914 99.912-99.93 261.64 0 361.567 99.913 99.913 261.639 99.928 361.566 0 99.913-99.912 99.929-261.64 0-361.567zm-180.784 394.45c-117.816 0-213.667-95.851-213.667-213.667s95.851-213.666 213.667-213.666 213.667 95.851 213.667 213.667-95.85 213.666-213.667 213.666z" fill="#e00000" data-original="#000000" style="" class=""></path><path xmlns="http://www.w3.org/2000/svg" d="m332.617 239.148-96-74.667c-13.774-10.715-33.893-.863-33.893 16.577v149.333c0 17.563 20.25 27.186 33.893 16.577l96-74.667c10.796-8.398 10.809-24.745 0-33.153zm-87.893 48.305v-63.458l40.795 31.729z" fill="#e00000" data-original="#000000" style="
    fill: #fff;
" class=""></path></g></svg>